<svg width="270" height="42" viewBox="0 0 270 42" fill="none" xmlns="http://www.w3.org/2000/svg">
<g clip-path="url(#clip0)">
<path d="M35.6 6.09999C27.5 -2.00001 14.3 -2.00001 6.09997 6.09999C-1.80003 14 -2.00003 26.7 5.39997 34.8L8.59997 31.6L7.09997 30.1L12.7 24.5L11.1 22.9L13.9 20.1L8.49997 14.7L9.49997 13.7L14.9 19.1L15.4 18.6L26.7 7.29999L34.5 15.1L18.9 30.8L17.3 29.2L11.7 34.8L10.2 33.3L6.99997 36.4C15.2 43.7 27.7 43.4 35.6 35.6C43.7 27.5 43.7 14.3 35.6 6.09999Z" fill="white"/>
<path d="M18.1486 19.0756L14.2595 22.9647L15.3909 24.096L19.2799 20.207L18.1486 19.0756Z" fill="white"/>
<path d="M21.6118 22.6147L17.7228 26.5038L18.8541 27.6351L22.7432 23.7461L21.6118 22.6147Z" fill="white"/>
<path d="M51 0.899994H58C59.4 0.899994 60.6 1.09999 61.8 1.39999C62.9 1.69999 63.9 2.29999 64.7 2.99999C65.5 3.69999 66.1 4.69999 66.6 5.79999C67 6.99999 67.2 8.39999 67.2 9.99999C67.2 11.6 67 13 66.5 14.1C66.1 15.2 65.4 16.2 64.6 16.9C63.8 17.6 62.8 18.2 61.7 18.5C60.6 18.9 59.4 19 58 19H51V0.899994ZM55.5 15.2H58.1C58.9 15.2 59.7 15.1 60.2 14.8C60.8 14.5 61.3 14.2 61.6 13.7C61.9 13.2 62.2 12.7 62.4 12C62.6 11.4 62.6 10.7 62.6 9.99999C62.6 9.29999 62.5 8.59999 62.4 7.99999C62.2 7.39999 62 6.79999 61.6 6.29999C61.2 5.79999 60.8 5.49999 60.2 5.19999C59.6 4.89999 58.9 4.79999 58 4.79999H55.4V15.2H55.5Z" fill="white"/>
<path d="M69.4 19V0.899994H82.7V4.39999H73.9V7.69999H82.1V11.2H73.9V15.5H83.5V19H69.4Z" fill="white"/>
<path d="M51 20.4H57.6L60.8 33.8L64.1 20.4H70.7V38.5H66.4V24.5H66.2L62.6 38.6H58.7L55.1 24.5V38.6H51V20.4Z" fill="white"/>
<path d="M78.7 20.4H83.4L90.2 38.5H85.3L84.4 35.6H77.7L76.8 38.5H72L78.7 20.4ZM83.3 32.3L81.1 24.8L78.9 32.3H83.3Z" fill="white"/>
<path d="M96.5 20.4H101.2L108 38.5H103.1L102.2 35.6H95.5L94.6 38.5H89.8L96.5 20.4ZM101.1 32.3L98.9 24.8L96.7 32.3H101.1Z" fill="white"/>
<path d="M109.3 20.4H114L120.5 31.9H120.4V20.4H124.5V38.5H120L113.4 27.1H113.3V38.5H109.2L109.3 20.4Z" fill="white"/>
<path d="M127.5 20.4H134.5C135.9 20.4 137.1 20.6 138.3 20.9C139.4 21.2 140.4 21.8 141.2 22.5C142 23.2 142.6 24.2 143.1 25.3C143.5 26.4 143.8 27.8 143.8 29.4C143.8 31 143.6 32.4 143.1 33.5C142.7 34.6 142 35.6 141.2 36.3C140.4 37 139.4 37.6 138.3 37.9C137.2 38.2 135.9 38.4 134.5 38.4H127.5V20.4ZM132 34.7H134.6C135.4 34.7 136.2 34.6 136.7 34.3C137.3 34 137.8 33.7 138.1 33.2C138.4 32.7 138.7 32.2 138.9 31.5C139.1 30.9 139.1 30.2 139.1 29.5C139.1 28.8 139 28.1 138.9 27.5C138.7 26.9 138.5 26.3 138.1 25.8C137.7 25.3 137.3 25 136.7 24.7C136.1 24.4 135.4 24.3 134.5 24.3H132V34.7Z" fill="white"/>
<path d="M151 20.4H155.7L162.5 38.5H157.6L156.7 35.6H150L149.1 38.5H144.3L151 20.4ZM155.6 32.3L153.4 24.8L151.2 32.3H155.6Z" fill="white"/>
<path d="M176.4 26.1C175.5 24.5 174.1 23.7 172.1 23.7C170.7 23.7 169.6 24.2 168.7 25.1C167.8 26 167.4 27.5 167.4 29.5C167.4 31.3 167.8 32.7 168.6 33.7C169.4 34.7 170.5 35.3 172.1 35.3C172.5 35.3 172.9 35.2 173.4 35.1C173.9 35 174.3 34.8 174.7 34.5C175.1 34.2 175.4 33.9 175.7 33.5C176 33.1 176.1 32.6 176.2 32H172.3V28.5H180.1V38.6H176.4V37C175.8 37.7 175.1 38.2 174.2 38.6C173.3 39 172.3 39.2 171.2 39.2C169.8 39.2 168.6 39 167.6 38.5C166.6 38 165.7 37.4 165 36.5C164.3 35.7 163.8 34.7 163.4 33.5C163.1 32.3 162.9 31.1 162.9 29.7C162.9 28.3 163.1 27.1 163.5 25.9C163.9 24.7 164.4 23.7 165.2 22.8C165.9 21.9 166.9 21.3 168 20.8C169.1 20.3 170.4 20.1 171.9 20.1C173.7 20.1 175.3 20.5 176.7 21.2C178.1 21.9 179.3 23.1 180.2 24.6L176.4 26.1Z" fill="white"/>
<path d="M187.6 20.4H192.3L199.1 38.5H194.2L193.3 35.6H186.6L185.7 38.5H180.9L187.6 20.4ZM192.2 32.3L190 24.8L187.8 32.3H192.2Z" fill="white"/>
<path d="M197 20.4H201.8L205.5 33.3L209.3 20.4H214.1L207.8 38.5H203L197 20.4Z" fill="white"/>
<path d="M232.9 29.5C232.9 30.8 232.7 32 232.3 33.1C231.9 34.3 231.3 35.3 230.5 36.1C229.7 36.9 228.8 37.7 227.6 38.2C226.5 38.7 225.2 39 223.7 39C222.3 39 221 38.7 219.8 38.2C218.7 37.7 217.7 37 216.9 36.1C216.1 35.2 215.5 34.2 215.1 33.1C214.7 32 214.5 30.7 214.5 29.5C214.5 28.2 214.7 27 215.1 25.9C215.5 24.8 216.1 23.7 216.9 22.9C217.7 22 218.6 21.3 219.8 20.8C220.9 20.3 222.2 20 223.7 20C225.1 20 226.4 20.3 227.6 20.8C228.7 21.3 229.7 22 230.5 22.9C231.3 23.8 231.9 24.8 232.3 25.9C232.7 27 232.9 28.2 232.9 29.5ZM228.4 29.5C228.4 28.8 228.3 28.1 228.1 27.4C227.9 26.7 227.7 26.1 227.3 25.6C226.9 25.1 226.5 24.6 225.9 24.3C225.3 24 224.6 23.8 223.8 23.8C223.1 23.8 222.5 23.9 222 24.1C221.4 24.3 220.9 24.7 220.5 25.1C220.1 25.6 219.8 26.2 219.5 26.9C219.3 27.6 219.1 28.5 219.1 29.5C219.1 30.2 219.2 30.8 219.3 31.5C219.4 32.2 219.7 32.8 220 33.4C220.4 34 220.8 34.4 221.4 34.8C222 35.2 222.7 35.3 223.6 35.3C224.4 35.3 225.1 35.1 225.7 34.8C226.3 34.5 226.8 34 227.1 33.5C227.5 33 227.7 32.3 227.9 31.7C228.3 30.9 228.4 30.2 228.4 29.5Z" fill="white"/>
<path d="M235.1 20.4H239.8L246.3 31.9H246.2V20.4H250.3V38.5H245.8L239.2 27.1H239.1V38.5H235V20.4H235.1Z" fill="white"/>
<path d="M253.3 20.4H260.3C261.7 20.4 262.9 20.6 264.1 20.9C265.2 21.2 266.2 21.8 267 22.5C267.8 23.2 268.4 24.2 268.9 25.3C269.3 26.4 269.6 27.8 269.6 29.4C269.6 31 269.4 32.4 268.9 33.5C268.5 34.6 267.8 35.6 267 36.3C266.2 37 265.2 37.6 264.1 37.9C263 38.2 261.7 38.4 260.3 38.4H253.3V20.4ZM257.8 34.7H260.4C261.2 34.7 262 34.6 262.5 34.3C263.1 34 263.6 33.7 263.9 33.2C264.2 32.7 264.5 32.2 264.7 31.5C264.9 30.9 264.9 30.2 264.9 29.5C264.9 28.8 264.8 28.1 264.7 27.5C264.5 26.9 264.3 26.3 263.9 25.8C263.5 25.3 263.1 25 262.5 24.7C261.9 24.4 261.2 24.3 260.3 24.3H257.7V34.7H257.8Z" fill="white"/>
</g>
<defs>
<clipPath id="clip0">
<rect width="269.6" height="41.7" fill="white"/>
</clipPath>
</defs>
</svg>
